/* XPM */
static char *_494649fc53149a788a6143b6adb13579VQXp590dTllL3T8[] = {
/* columns rows colors chars-per-pixel */
"40 40 123 2 ",
"   c #000000",
".  c #0C0C0C",
"X  c #151515",
"o  c #191919",
"O  c #252525",
"+  c #2B2B2B",
"@  c #353535",
"#  c #3A3A3A",
"$  c #434343",
"%  c #4A4A4A",
"&  c #565656",
"*  c #5E5E5E",
"=  c #666666",
"-  c #6D6D6D",
";  c #747474",
":  c gray48",
">  c #008E2A",
",  c #00952D",
"<  c #009B2E",
"1  c #0A992F",
"2  c #1A972F",
"3  c #009E30",
"4  c #0C9936",
"5  c #0F9B38",
"6  c #1B9C30",
"7  c #159E3E",
"8  c #32892B",
"9  c #2C912D",
"0  c #259F31",
"q  c #00A331",
"w  c #0BA433",
"e  c #00AA34",
"r  c #0CA934",
"t  c #0DA039",
"y  c #16A432",
"u  c #1BA533",
"i  c #14AA34",
"p  c #1BAA34",
"a  c #12A13D",
"s  c #00B136",
"d  c #0FB236",
"f  c #1BB237",
"g  c #22A633",
"h  c #29A734",
"j  c #24AB35",
"k  c #2AAD35",
"l  c #31A634",
"z  c #30AB35",
"x  c #23B036",
"c  c #2AB337",
"v  c #2CB438",
"b  c #31B338",
"n  c #39B639",
"m  c #1C9540",
"M  c #1D9A42",
"N  c #2A9D4C",
"B  c #19A844",
"V  c #24A44B",
"C  c #31A554",
"Z  c #39A75A",
"A  c #4AAA54",
"S  c #52B65C",
"D  c #519F68",
"F  c #47A965",
"G  c #48AB65",
"H  c #4EB16C",
"J  c #53B26A",
"K  c #56BA6A",
"L  c #56B572",
"P  c #56BB74",
"I  c #67B57E",
"U  c #63BE7E",
"Y  c #6BBA79",
"T  c #6FB584",
"R  c #69BA81",
"E  c #70BD87",
"W  c #74BC89",
"Q  c #7CBE90",
"!  c #73C28A",
"~  c #7DC291",
"^  c #7CC893",
"/  c gray52",
"(  c #8B8B8B",
")  c #949494",
"_  c #9C9C9C",
"`  c #80BF92",
"'  c #A4A4A4",
"]  c #ACACAC",
"[  c gray71",
"{  c #B7B8B7",
"}  c #BCBCBC",
"|  c #82C395",
" . c #8CC793",
".. c #81CB97",
"X. c #89CA97",
"o. c #8BC49C",
"O. c #87CC9C",
"+. c #8EC89F",
"@. c #96C5A4",
"#. c #9BC5A4",
"$. c #9DC8AA",
"%. c #A2C5A5",
"&. c #A2CFAF",
"*. c #A9CDAF",
"=. c #B4CCBB",
"-. c #B4D3BD",
";. c #B8D8C1",
":. c #C3C3C3",
">. c #C7CAC7",
",. c #CBCBCB",
"<. c #C2D5C7",
"1. c #C7D7C9",
"2. c #C4DACB",
"3. c #C9DCCE",
"4. c #CDDDD2",
"5. c #D4D4D4",
"6. c #D2DCD5",
"7. c #D6DFD8",
"8. c #DBDDDB",
"9. c #D3E1D6",
"0. c #D7E1DA",
"q. c #DCE2DD",
"w. c #E5E6E5",
/* pixels */
"c q < , 2 3 3 , q e 3 e e 3 q q < q q 4 g e e e p e 3 < < g w < > < 3 , , q , , ",
"e e , e q , < 3 q 3 < < 3 < < 3 3 N -.w.w.w.#.V 3 , < < 3 e < 3 g q q q > 3 < > ",
"r e < q w < e p 3 3 < < < < q B T 3.w.5.,.8.q.4.H 4 < q < e e 3 i q e e 3 < < q ",
"e q < < j u e d < 3 < 3 3 3 w G 6.:.$ O O O * :.3.K e e < 3 e e 6 < q 3 q < q e ",
"q 3 e s w w e q u 3 q 3 3 q K 1.} +         . % } &.S 3 < 3 e < 9 3 q q q e q q ",
"3 e s p 3 q i e 3 e 3 q q 3 P 7.(             . _ 7.P z j s k < 3 q q q q q q e ",
"e , < 3 3 q 3 q e e < < i e L ,.;               ) w.U 1 e < q < < < , e e y e q ",
"q p e q 3 3 s e e q < 4 e q P 5./               _ q.U e < , < < < , , g k h q , ",
"q k q 3 3 < 3 q < 3 e q s q J 9.] o           @ [ =.F q < < 3 e q < q e 3 3 q 3 ",
"q q 3 q q , , < < q 3 3 q a ! q.:.%           - ,.-.J 5 e < n e 3 3 q 3 q j l q ",
"e < < q e 0 1 < < < < 3 7 Y <.:.- @           $ : :.-.G , e e w < < q < q p q < ",
"3 j q q < < 3 < , < e < F =.} &                 o = :.*.Z < e e q 3 q e q q q < ",
"3 e q q 3 q q q 3 s e 7 +.>.=                     . : 5.X.4 e q q q 3 < < q q , ",
"< e q s f e q 3 < q < L 1.) o                       # ' *.A < < , 3 < q 3 3 q , ",
"< , 3 e q e < < e < q ..8.;                         . ; 4.! < < g 3 q q q e q e ",
"e < e j p p e 3 u < < | :.*                           - 7.O.e w r q 3 3 , u 3 < ",
"e p r 3 j k e 0 3 < , ..} *                           - 7.O.e q e 3 < < < 3 e q ",
"< u < , 3 x < 3 < e 3 ..5.-                           ; 7.^ q , < 3 , 3 s i j 3 ",
"< e 3 < e e < < < 3 , W 0./ .                       X ( -.J e 3 3 3 3 < s k q < ",
"e u u < < e e q < < < N %.[ %                       - 5.` 1 e u h e q < e b q < ",
"3 g 3 < 3 q e j < 3 3 e ! w.) o                   $ ] 4.R , < q e 3 > < e w j < ",
"< e 3 < , q q r 3 e e < 7 Q 8.' @               & [ w. .7 , < g v 3 3 s e < w 3 ",
"3 < < 3 3 r q e e < < t R 4.w.>.-             o / 5.w.3.U q < e x 3 3 3 q 3 3 3 ",
"e < < q s e e < < < C +.6.{ * O X             . o + ; :.7.~ 4 e p p 3 < 3 w < e ",
"3 q < q 3 3 i < < C @.6.) @ X                       X % _ 9.| 4 < e < e < q < 3 ",
"q < < < 3 < < , 4 o.6.( O                             . @ ) 6.~ < , < e 3 < e 3 ",
"j , q 3 q q < 3 E 4.) +                                 . # ' 4.R < e q r 3 3 p ",
"0 < q < 3 3 < J 2.] #                                     . % >.;.M < e q < < y ",
"e e < < < q > $.5.* .                                       o ; 7.~ < < , < 2 2 ",
"e e , 3 < 3 C 2._ +                                           @ :.3.a < > e e e ",
"3 e e 3 < < #.8.% .                                           X - q.I 3 , q i 3 ",
"k e s < < , 3.:.+                                               + 7.2.q < e f e ",
"w < 3 e q N 7.: o                                               O { 0.w e p q < ",
"3 e 3 e q ` 0.#                                                 . - 0.m , q e e ",
"3 u i 3 q <.w.+                                                 . @ q.D , , g e ",
"e u j e < 0.8.O                                                   O q.#.8 1 e e ",
"< e e c < w.5.# o o o o o o o o o o o o o o o o o o o o o o o o o @ w.=.6 e e q ",
"e 3 < 3 < w.w.,.,.,.,.,.,.,.,.,.,.,.,.,.,.,.,.,.,.,.,.,.,.,.,.,.,.,.w.6.p 3 < q ",
"e e < < 3 w.w.w.w.w.w.w.w.w.w.w.w.w.w.w.w.w.w.w.w.w.w.w.w.w.w.w.w.w.w.7.q q q e ",
"w e e < e < e , 3 3 e e e < w e q 3 q q c e , , < q e 3 , q q 3 y e e e , < < , "
};
