/* XPM */
static char *_16417799bc64d61932019f8a40a3cbfzQsoKTtlsjEcYIjo[] = {
/* columns rows colors chars-per-pixel */
"40 40 126 2 ",
"   c #000000",
".  c #0C0C0C",
"X  c #141414",
"o  c #1A1A1A",
"O  c gray14",
"+  c #2C2C2C",
"@  c #333333",
"#  c gray23",
"$  c #434343",
"%  c #4C4C4C",
"&  c #555555",
"*  c #5A5A5A",
"=  c #646464",
"-  c #6B6B6B",
";  c #747474",
":  c #7B7B7B",
">  c #028D2C",
",  c #00952D",
"<  c #009B2E",
"1  c #0A992F",
"2  c #1A972F",
"3  c #0A8F31",
"4  c #108D35",
"5  c #069431",
"6  c #0A9232",
"7  c #009E30",
"8  c #0E9C34",
"9  c #0E9A38",
"0  c #1B9C30",
"q  c #16933B",
"w  c #1A963F",
"e  c #109839",
"r  c #32892B",
"t  c #2C912D",
"y  c #259F31",
"u  c #00A331",
"i  c #0BA332",
"p  c #00AA34",
"a  c #0CA934",
"s  c #15A332",
"d  c #1BA432",
"f  c #13AA34",
"g  c #1CAB34",
"h  c #00B136",
"j  c #0CB236",
"k  c #1CB237",
"l  c #23A733",
"z  c #28A734",
"x  c #24AB35",
"c  c #29AD35",
"v  c #31A634",
"b  c #30AB35",
"n  c #2AB337",
"m  c #2CB438",
"M  c #39B639",
"N  c #3AB839",
"B  c #348D4E",
"V  c #239646",
"C  c #269848",
"Z  c #3B8952",
"A  c #349651",
"S  c #379E56",
"D  c #3D9E5A",
"F  c #31A754",
"G  c #419B5C",
"H  c #43A053",
"J  c #43A15F",
"K  c #529E68",
"L  c #6E9E7C",
"P  c #43A962",
"I  c #57A66E",
"U  c #5AA16F",
"Y  c #6BA972",
"T  c #66A278",
"R  c #62B17A",
"E  c #74B587",
"W  c #78B88B",
"Q  c #848484",
"!  c #8E8E8E",
"~  c gray58",
"^  c #9D9D9D",
"/  c #82BA89",
"(  c #85B694",
")  c #8DB793",
"_  c #8BBC99",
"`  c #91BE9B",
"'  c #9BB9A4",
"]  c #A3A3A3",
"[  c #ACACAC",
"{  c #B1B1B1",
"}  c #BCBCBC",
"|  c #97C3A4",
" . c #9DC7A9",
".. c #9CC9A9",
"X. c #A1C4AB",
"o. c #A6CAB1",
"O. c #ABCDB5",
"+. c #B5D4BE",
"@. c #BDCDC1",
"#. c #BAD7C2",
"$. c #BDD9C4",
"%. c #C3C3C3",
"&. c #CACACA",
"*. c #C3DACA",
"=. c #CCDED1",
"-. c #D3D3D3",
";. c #D0DFD4",
":. c #D7DDD8",
">. c #D8D8D8",
",. c gray85",
"<. c gray86",
"1. c gainsboro",
"2. c #D4E0D7",
"3. c #D6E1D9",
"4. c #D9E2DA",
"5. c #DEE4DF",
"6. c #DFE4DF",
"7. c #DFE4E0",
"8. c #E2E2E2",
"9. c gray89",
"0. c #E1E5E1",
"q. c #E4E4E4",
"w. c gray90",
"e. c #E4E6E4",
"r. c #E6E6E6",
"t. c #E6E7E6",
/* pixels */
"n u < , 2 7 7 , < p u p p < p < < p u 1 l p p p g u 7 < < l i 7 > < 7 < < 7 , , ",
"p p , p u , < 7 p < < < 7 < < < u < p < < u u < u < , < u p < < x 7 u 7 , < < , ",
"a p < u i < p g u 7 < , < < p u < , u X.r.' p a p u < u < p u p f u p p < < < 7 ",
"p u < < x d p j < u < < < 7 p < < p S r.& r.G N g f h p , u p u 0 < u 7 u < u p ",
"7 < p h i i p u d 7 p u 7 7 g u p M ( }   ] ' u < p x < < p u < t 7 p p p 7 7 7 ",
"u p h g u u f p u p 7 7 u 7 p < ..8.r.}   ^ r.:...p u b x h c < 7 7 7 7 < p p p ",
"p , < < u u 7 u u p , < f p , K 8.& % $   @ * - 8.T 7 i u 7 u < < < , p p d p p ",
"u g p p 7 7 p p p u 7 i p u u U -.              %.L < p < , < < < , , l x z 7 < ",
"7 c u 7 < , u u u u p < h p , C r.q.q.{   ! >.<.r.Z < u < < 7 p u < u p u < u 7 ",
"p 7 < u u , , < , u 7 u u p u p q C o.}   ^ @.B > i < u p < M p < 7 u < p x v u ",
"p < < u p l 1 < < < < < < x p u < < ) %.- { ' < < f p < < p p i < < p < < g u < ",
"7 l p u < < < , < < p < u < p u u < ;.9.8.r.;.s p j u < < < p p u u 7 p p u 7 < ",
"7 p u p < 7 p 6 D P F > < 7 , u 7 #.1.X   X <.$.p < 8 u f V G J w u 7 < < 7 u , ",
"< p 7 h k F r.r.8.8.8.r.6.W , u e r.O       O r.4 < G 3.r.r.8.0.t.t.+.5 7 < u , ",
"< , 7 p  .r.:         . = <.r.I _ &.          %.#.6.r.! o         @ %.t.S p u p ",
"p < p Y r.O                 = r.r.[           [ 9.]                   ; r.H 7 < ",
"u g i r.&                     X >.<..       ; 8.*                       : r.u u ",
"7 d E <.                        . -.-.    @ r.*                           <./ u ",
"7 u 3.;                           . 1.[   8.^                             : ;.< ",
"u g r.#                             + r.] r.                              % 6.< ",
"p l 6.$                               ^ r.;                               - 4.< ",
"< u *.^                               X 8..                               &._ < ",
"< < A 9..                             . r..                             @ r.9 7 ",
"p < < 3.}                             . r..                           . <.| < p ",
"u p u 9 r.~                           . 8..                           -.3.u , 7 ",
"u , < < q 8.{             O = ] %.<.r.8.r.8.<.%.^ = O             X 1.4.< < p u ",
"x , u < p e 0.<.@   % %.r.r.0.} ~ ; * $ $ * ; ~ } 8.r.8.} $     & r.*.< a 7 7 g ",
"y < u < < 7 < ` 8.r.8.[ #                             $ [ 8.8.-.r.R 7 p 7 < < s ",
"p p < < < u , < r.~                 o X o X               . ! 0.8 p < < < < 2 0 ",
"p p < < < < < 7 r.*   . + Q %.8.r.8.r.8.8.r.r.8.8.%.Q +     * 3.p u p < > p p p ",
"< p p u < < p p 0.: { r.r.-.^ & O o . . . . o + * ^ <.r.8.[ : 3.n 7 < 7 , < s u ",
"c u h < < < < v r.r.%.$                                 % &.r.4.p < p u < p k p ",
"i < u p u u g u r.=           o + % * ; ; * % + X           = 3.g p 7 p p g < < ",
"u p p u u p p u 8.*   + ~ <.8.8.r.1.<.<.1.1.8.8.r.8.<.! +   * 4.s 7 7 < < u p p ",
"u d a < 7 , , < r.} 0.8.&.: @ .                 . @ : &.q.8.} :., u 7 < < , x p ",
"u l l p < p , < 8.r.: .                                 . ! q.7., , u d r 5 p 7 ",
"7 u u m < u 7 < 6 #.r.-.* X                         o - -.r.O.5 < < h p 0 p p p ",
"p u < u < p , < 7 , 1 _ r.r.<.+.Q & $ @ @ $ * Q %.1.r.0.E 1 u 7 p u 7 g g < < 7 ",
"p p , 7 u 7 7 u p > , , < 3 Z _ =.4.6.q.r.6.3.=.( D 6 7 p u p u s < < s u 7 7 p ",
"i p p 7 u 7 p , < u p p u 7 a u u < u p n p , , < u p 7 7 7 7 7 s p p p < < < < "
};
