/* XPM */
static char *f4b4c89fe87d4b76d598160870e99293ryUNbDMIRlM9G6l4[] = {
/* columns rows colors chars-per-pixel */
"40 40 41 1 ",
"  c #168E05",
". c #1C8F06",
"X c #169505",
"o c #1D9506",
"O c #1E9B06",
"+ c #3B870F",
"@ c #318D0C",
"# c #219507",
"$ c #219A07",
"% c #259608",
"& c #299609",
"* c #259B08",
"= c #2C9C0A",
"- c #32940C",
"; c #3B960F",
": c #339D0C",
"> c #3A9D0E",
", c #21A107",
"< c #26A208",
"1 c #2DA20A",
"2 c #2EA80A",
"3 c #34A30C",
"4 c #3BA40E",
"5 c #35AA0C",
"6 c #3CAA0E",
"7 c #37B10C",
"8 c #3CB00E",
"9 c #429F0F",
"0 c #438812",
"q c #429011",
"w c #439E10",
"e c #41A50F",
"r c #41AA0F",
"t c #42B10F",
"y c #45A510",
"u c #4AA612",
"i c #45AB10",
"p c #4AAC11",
"a c #45B110",
"s c #4CB312",
"d c #54B514",
/* pixels */
"s3=@;1=#1633513:=:34e355r4<*-ee>@*=%=1##",
"8<#44%*33*o$::*:4:>=>44:3oo=34=>e>4:o*%#",
"y3=3>&4i::$*::<2=&4*::346**3$431r>65=$=4",
"24=1iy6a=>::=*4=>6e**:4drr82$464>=4=:%<5",
"<=58e4e4e:3==3i44d3$3e34>6p>=36>q>633413",
"328p43i345=3::4*:i:*3t1:r5:pp6p::4:3$636",
"4%*>334444%>er&*3e:3ee6tr31>>=3=-#Xr6e61",
"3i44>*6664:e64<1*=*&34re***4=o:&=ooepu3*",
"3i44:-44*:53t4*31$:=6=::%.*=:-44:=36::>*",
"3:*33--*%3*:4434:*516%&##e=114d4**1:3pu1",
"e=:>3w;>*>:*3i63-=y:=;4$:e3*X666==3=3r3=",
":y43=>::#$4*:=145*4=:e4e4t44=3643:4633::",
"36=3=333*a6%:3*4>#>=:61r1=>3r4>1=4:&:=3o",
"oi17t64=&2**u*#<5%6-13&4O;>4rp$==<:4**3%",
"=&:644:$4=2=a*==>31>:445*41636$:e=1:1536",
"4=6pri44e**:1=>3;==5165=:14p=41ee3=$=e::",
"ere>pp491**6*:636*$<=65:6%&>:25<3:$*=34<",
">4=#>r=4$44r3es:33##$=%16=1==41o*:#=ter4",
"=3==45&=*=--rs6==r6>=4:==6655re4:>*=ri4&",
"4ee==r64=*&:e9:%o:::rtr>=::1*34ep6,$6d4*",
"4e4#O46r==11:42=-:=o514663:4===:e3 *4ee&",
":33=X336:53==661:=<1&===61-e*%:ep:465=e3",
"=$*::e354==61>11*<66=ee4e=o:45=3p44=<334",
"5=&3tr6*=:*5=41=3:9:1:ep=:*1e5=6re*#44o3",
"=3:1=4e$::=:&>e:244ee:5tr1%=r=11*3*333*>",
"2o**:&&#23:6e=r6=3434e3362=14:43$X=6=*43",
"r#1*<3:311:421=3#;e:&63==452644>&=42r:>e",
"9;3=*:*e1=;;1::>:6p:o:4::>1$1::164:43*:9",
"64#==3&&3==36e:=1=46=5::331$=:316e$=X*;>",
"66#::=#<64=:::=31=2y:6:3&:#3=>61e44=X544",
"3464*$36r$,:::4:46e64611:>::3:=:p3=4-:e1",
"p36>:o>pr<o=164==:41,o&::4:6p6:=e=43>4r6",
"i>3343i4>*43*>:3<o$=*o>4*::56e>:r3*25r::",
":44444i<3yat643:***5:*o**=3$363-e:**$=66",
"3e63>%#*iypii#>3:**41=*6=:%:3:*%o=1:-#re",
"4yp4=6-=1>;>**:::%%31344*=>43*%%&%3e0>64",
"=44d:>=&==3==3*>y:-:6333==5ee66=:*869444",
"33*4:3#1>:1o:>*<43+>4686*3#4re3>4*3er>=4",
"i6#=4>*<6@;o*#3:*3==i:4>#*&=4433e:=e333<",
"462=4:4o=31y6&663*44s3%&*:43*44=e453#*=o"
};
