/* XPM */
static char *_dc7d2fd3c504382c23e3ec07560c059VQKqOmwDpvK2AVYC[] = {
/* columns rows colors chars-per-pixel */
"40 40 85 1 ",
"  c #030303",
". c #010B04",
"X c #0D0D0D",
"o c #001306",
"O c #001907",
"+ c #07150A",
"@ c #0D120E",
"# c #141414",
"$ c #1A1A1A",
"% c #00230A",
"& c #002B0C",
"* c #00330F",
"= c #003710",
"- c #083510",
"; c #003C11",
": c #222222",
"> c #2B2B2B",
", c #323232",
"< c #3C3C3C",
"1 c #004514",
"2 c #0D4615",
"3 c #004B16",
"4 c #0A4815",
"5 c #005218",
"6 c #005D1C",
"7 c #01641E",
"8 c #0D631E",
"9 c #00691F",
"0 c #14671F",
"q c #006D20",
"w c #0A6A20",
"e c #007523",
"r c #007C25",
"t c #454545",
"y c #5D5D5D",
"u c #646464",
"i c #6C6C6C",
"p c #717171",
"a c #7C7C7C",
"s c #008327",
"d c #008628",
"f c #008B2A",
"g c #158729",
"h c #00952D",
"j c #0D932D",
"k c #009B2E",
"l c #15942D",
"z c #1B952E",
"x c #009F30",
"c c #0B9D30",
"v c #25932D",
"b c #23982E",
"n c #289A2F",
"m c #259F31",
"M c #00A331",
"N c #0BA532",
"B c #00AA34",
"V c #0CA933",
"C c #14A332",
"Z c #1BA533",
"A c #15AA34",
"S c #1CAB34",
"D c #00B036",
"F c #1BB237",
"G c #23A633",
"H c #28A734",
"J c #24AB34",
"K c #2AAC35",
"L c #31A634",
"P c #23B036",
"I c #2BB337",
"U c #31B338",
"Y c #848484",
"T c #8B8B8B",
"R c #939393",
"E c #9C9C9C",
"W c #A1A1A1",
"Q c #ACACAC",
"! c #B4B4B4",
"~ c #BBBBBB",
"^ c #C4C4C4",
"/ c #CECECE",
"( c #D5D5D5",
") c #D9D9D9",
"_ c #E5E5E5",
/* pixels */
"IMkhzMkhkBMMBkMxkBxNGMBBSBMhkGNkfkkhkMhh",
"BBhBM9     &skkk7.     .9hhks&     ehkhh",
"VBkMc6 :,,$O9kkM1 :,,,>.5MkM9o$>,: qhhMM",
"BMkkJw$Q_)a.1797& ~___~.-8991.a__W:7MhMB",
"MxBDN8$Q_)T#######^___^####@@#Y__W:qMMMx",
"MBDSx7$Q__)!EWWWW~_____~WWWWW!(__W:7kBMB",
"Mhkxk6$E/////////////////////////T$9MZBB",
"BSMBk6XtyyyyyyyyyyyyyyyyyyyyyyyyytX0HHMh",
"MHBxx7. $ttttttttttttttttttttttt$ oekxMx",
"MxkMMf3.,R^^^^^^^^^^^^^^^^^^^^^R,.5hBHLM",
"BxkMBmf3+<E!!!!!!!!!!Q!!!!!!!!E<+5hkxSMk",
"xGMMkxxf3+:<,<<<<,<<,<<<,<<,<<:+5hxBMMMk",
"MBMBkxMMs=:yiiiiiiiipiiiiiipiy:*sBkkkMMh",
"kBMDFBBkr;t^)))))))))))()))))!t1dMkMkkMh",
"khxBMBkhh;t/_________________~t1zkMMBBMB",
"BkBJSSBMl;t/_________________^t1jMkkhZkk",
"BZVxHKMmf;t/_________________/t4hkkkkMBB",
"xZxhMPxMd1t(_________________)t1dkkkDAJM",
"kMxkBMxkd;t(_________________^t3sMMkBKBh",
"BZZxMBMMs;t)_________________^t4vBBkBUMk",
"MGMkkMBJd;t(_________________^t1hMfkBNGk",
"kMMkhBMVf;t/_________________^t2nkMBBkNk",
"xkkxxVMBf;t(_________________^t1bBMMMxMM",
"BkhMDBBMd;t/_________________^t3lZkhMNkB",
"xBxMxMCkd;t/_________________^t1fBkMMkkk",
"Mhkkxhkhf;<W!!~!~!!!~!!!!~!~!E,1shkDMkMM",
"JhMkBMxMd=X#$$$$$$$$$$$$$$$$$#X;skBMVkMS",
"mkBkkkkCrO$ttttttttttttttttttt:%skkBMkkC",
"BBhhkMhf1#a_)__)__))_)_))____)Y#3ckkkkzz",
"BBhMkkf3.:iYYYYYYYYYYYYYYYaYYYu$o5hhfBBB",
"MBBMkMs.  X X X  XX  XX   X X X  .eMkkAk",
"IMDkhhrX<YYYTYYYYYYYYYYYTYYYYYYY< eMkBFB",
"NkMBMMg#p_______________________iXeMBSMM",
"MMMBxBdXp_______________________iXekhkBB",
"MZV731; ,iiiiipiiiiiiiiiiiiiiiii, =337JB",
"BSJo...  #XXXXX#XXXX#XX#XXX#XXXX  ...OMM",
"kMM :!!!!!!!!!!!!!!!!!!!!!!!!!!!!!!!:.BB",
"MMh ,_______________________________,.kM",
"BBk X<<<<<<<<<<<<<<<<<<<<<<<<<<<<<<<X.MB",
"NBBo                                 Ohh"
};
