/* XPM */
static char *_48e2bf9f774428b8d42a4d9dc9f9250vS7pGK9bVmsgsBsT[] = {
/* columns rows colors chars-per-pixel */
"40 40 128 2 ",
"   c None",
".  c #060709",
"X  c #07080A",
"o  c #0A0C0E",
"O  c #0C0E11",
"+  c #0F1114",
"@  c #121316",
"#  c #14161A",
"$  c #16191D",
"%  c #191B1F",
"&  c #171A20",
"*  c #1A1D22",
"=  c #1E2125",
"-  c #1F2228",
";  c #202225",
":  c #22252A",
">  c #26292D",
",  c #292B2E",
"<  c #272B31",
"1  c #2A2E33",
"2  c #2E3135",
"3  c #2E3339",
"4  c #313336",
"5  c #32363B",
"6  c #35393D",
"7  c #3A3B3D",
"8  c #363B41",
"9  c #3A3E43",
"0  c #3D4146",
"q  c #3F4349",
"w  c #424345",
"e  c #42464A",
"r  c #45494E",
"t  c #4B4C4D",
"y  c #474B50",
"u  c #4A4D52",
"i  c #4E5155",
"p  c #525355",
"a  c #54565B",
"s  c #565658",
"d  c #535659",
"f  c #55585B",
"g  c #56585B",
"h  c #55585C",
"j  c #56585C",
"k  c #56595C",
"l  c #58595A",
"z  c #595A5A",
"x  c #595A5C",
"c  c #5A5B5D",
"v  c #585B5E",
"b  c #595B5E",
"n  c #5A5B5E",
"m  c #5A5B5F",
"M  c #5A5C5F",
"N  c #5C5D5E",
"B  c #5A5B5E",
"V  c #5B5D60",
"C  c #5C5D61",
"Z  c #5C5E60",
"A  c #5C5E61",
"S  c #5E5F62",
"D  c #5C5E61",
"F  c #5E6062",
"G  c #5F6062",
"H  c #5E6063",
"J  c #5F6163",
"K  c #5F6062",
"L  c #606164",
"P  c #606264",
"I  c #616365",
"U  c #636364",
"Y  c #626366",
"T  c #636465",
"R  c #636467",
"E  c #636567",
"W  c #656566",
"Q  c #646567",
"!  c #656666",
"~  c #636465",
"^  c #666769",
"/  c #656668",
"(  c #67686A",
")  c #67686B",
"_  c #686969",
"`  c #69696A",
"'  c #68696B",
"]  c #69696B",
"[  c #696A6B",
"{  c #6A6A6A",
"}  c #696A6C",
"|  c #696A6D",
" . c #6A6B6C",
".. c #6B6B6C",
"X. c #6B6C6D",
"o. c #6B6C6E",
"O. c #6C6C6D",
"+. c #6D6D6E",
"@. c #6F6F6F",
"#. c #6B6C6D",
"$. c #6E6F71",
"%. c #6F6F70",
"&. c #6F7070",
"*. c #6F7071",
"=. c gray44",
"-. c #707071",
";. c #717171",
":. c #707072",
">. c #717172",
",. c #717273",
"<. c #727272",
"1. c gray45",
"2. c #727374",
"3. c #737374",
"4. c #737474",
"5. c #747575",
"6. c #757676",
"7. c #777777",
"8. c #737373",
"9. c #767778",
"0. c #797878",
"q. c #787879",
"w. c #797979",
"e. c gray48",
"r. c gray49",
"t. c #7A7A7A",
"y. c #7F7F80",
"u. c #848484",
/* pixels */
"    < : , , ; + # # # * = * $     @ % $ O o @ * +     O # & * - = = % #         ",
"  r  .L u y 5 - 1 3 8 8 q q e 5 - 5 t 2 9 6 4 0 < # + : 8 q r e r e 0 > $       ",
"> Q 7.<.H r 5 > 8 q y d V J | k 4 L +.w p z i i e : & 9 u j V V M M e > 2 w <   ",
": H  .L d e 1 5 r i v V E *.*.V 5 k Q s p s d u r 1 > i Q  .:.$.&.+.p > 0 / e % ",
"$ 0 p i e 2 - 0 y i d f R &.5.U , t [ [ H k d d e : , L :. .@.<.q.4.w - > t 2 O ",
"+ : 0 0 < % * 0 i V H H &.r.t.p % > z { [ o./ i < & , U <.3.q.q./ 7 2 5 < ; - # ",
"o = 5 e t e 1 4 t <.7.( / 7.` , $ $ , s 4.[ e > - $ & 0 Q ( z 7 ; , e y e 8 3 $ ",
"X = 4 p 5.r.{ w 2 M u.r.4.=.0 : 5 7 > 2 w 0 2 2 3 1 $ % > 5 2 1 : t h h i r 6 % ",
"@ 7 d t s o.R p : : i { k 5 2 6 e w 9 u y q 8 6 8 1 - 3 9 q q 5 r +.@.{ u e e = ",
"= k o.V e y u u 6 * * ; 3 9 e r r 9 c &.v e 8 9 8 < 9 y y y q 5 W 1.@.s p k u ; ",
"$ e r 0 9 y u u 8 : < : 0 y i i p r o.<.f y r u 3 2 r y e e 8 w :.@.N u j h r * ",
"o : 2 6 r u u y 5 : 2 > e i H ( [ L o. .i i z L 9 3 r y u d h e ....x N C j w @ ",
"+ > 0 r y y e 8 : > 5 < q h ` +.<.` <.+.M L { +.i 7 x R *.9.7.h t s G { @.z <   ",
"  $ : 2 5 3 2 < 3 0 8 3 0 M +.<.7.+.Q 7.<.5.5.5.N 7 / =.3.&.<.+.N r 7 7 w 1 $   ",
"    * $ * < 5 q y y q 3 9 L q.7.[ t 4 c +.+.{ N 0 : L +.&.( +.<.$.( 4 & * * * + ",
"      = 3 y i i i y 8 q 0 e t 7 4 2 < < 4 4 7 w , % t 7.7.<.&.7.7.s , < 3 < 1 @ ",
"      > e M L Q H u q i u 0 > : 9 e q 0 q d o.5.( 5 2 H 7.q.7.+.e , 5 8 8 3 5 & ",
"    3 7 z 7.7.5.R i h L f d 4 0 r y y u V <.$.H +.Q 4 5 9 w w 4 - 1 q e 8 9 0 * ",
"O : w e p 7.e.1.L H &.4.6.+.7 t r r q r H +.o.H ` { 9 q e 0 8 3 < q y e 0 y e ; ",
"@ 5 u z t N =.=.( &.4.q.r.p 2 e 0 8 0 y M +.Q i M { 9 t x M u 6 5 r y e e y q * ",
"* q u H U t =.5.<.&.t.7.w % = 3 8 8 r F o.( d 0 f / 7 i +.+.d 3 5 r u u d i 0 & ",
"- q r h =.N z =.7.7.Z 4 2 2 % 6 r y y h R J f r i i 8 M o.L r 2 5 y y V  .V w * ",
"$ 0 r h { &.z p i 4 2 > w i - 4 y y i V &.5.&.k i 5 r R M i r 5 : 0 u ` :.C 5   ",
"@ 5 r V =.&.{ { k 2 7 3 2 4 4 5 q y y V ( R [ s 3 2 H +.Q H p < & ; 4 w w 5 - O ",
"# : q h 7.&. .3.N w U c e e r 5 - 3 7 w e 7 7 > = = t @.<.N 7 % - 6 w 0 8 5 2 O ",
"  & 2 y $.5.$.9.e t { <.=.Z u 2 - 5 0 0 0 0 w 5 - 4 p t p w 0 , w H h y r q 5 # ",
"  - * 5 M 7.7.s 0 { 7.7.{ k u 6 t z i y t i f Z 7 z =.N y r 0 4 ( <.E d y e 8 # ",
"    - > 9 k w ; s q.<.( H p u 9 ! &.R f y i H / t <.r.@.i 0 6 6 +.<./ d u r 8 # ",
"  - 6 0 6 5 > # 5 [ U M p i w 7 _ &.[ M u i V Z p 5.e.9.( u 6 5 ` $.` h u y 9 @ ",
"@ 1 r i i d e 2 = 6 e e 7 2 ; 5 =.[ U f y i V i p o.4.5.&.h q 2 s 3.+.x u y 2 O ",
"$ 0 i R &.<.H e 1 # % $ $ # @ > [ / R k u i [ t e U | o.| h r 5 7 +.$.V u e :   ",
"- q f R R H k i 0 > # - 6 2 < 2 U 5.+.k u d ( w , w u i u r 8 5 ; t $.V y 8 *   ",
"* r u r q 9 q y q 3 % 6 q 8 8 u t +.M u e 0 7 5 4 7 , , 2 5 5 2 & : w t 9 : &   ",
"# 0 r 0 8 8 q y q 3 - q V d 9 i w , , ; % 4 u / <.N 4 @ % * * * 6 e 5 < : $ $   ",
"+ 2 r r u A J a q 3 - q o.&.u V i - % - ; t N M x i e : % * * 4 <.H w e e 3 $   ",
"  = 0 y d 2.*.p 9 1 & q R ( E o.e * * % % 4 e t e e 0 , % w 5 t 7.s e x H u - O ",
"  # < q u H d q 3 = $ 7 &.9.*.d : : w w 9 3 , r q 3 3 - 2 u 6 t 9.C u M H s < + ",
"    & 1 8 e q 1 * $ & ; t h q - 2 U e.U 0 5 - 4 q 3 1 * 6 q 1 1 +.L p p / d >   ",
"      $ - > = & & - , $ * * $ # 7 M i t q 8 = # : < - # > < & @ w t t s p 9 -   ",
"        X X . O   + @         + @ = = ; % $ o X           . X O o @ @ ; @ +     "
};
